<!-- Generator: Adobe Illustrator 23.0.6, SVG Export Plug-In  -->
<svg version="1.1" xmlns="http://www.w3.org/2000/svg" xmlns:xlink="http://www.w3.org/1999/xlink" x="0px" y="0px" width="2500px"
	 height="2500px" viewBox="0 0 2500 2500" style="enable-background:new 0 0 2500 2500;" xml:space="preserve">
<style type="text/css">
	.st0{fill:#FFFFFF;}
</style>
<defs>
</defs>
<path d="M1250,2500c333.88,0,647.78-130.03,883.88-366.12c236.09-236.1,366.12-550,366.12-883.88
	c0-333.88-130.03-647.78-366.12-883.88C1897.78,130.02,1583.88,0,1250,0C560.74,0,0,560.74,0,1250
	c0,333.88,130.02,647.78,366.12,883.88C602.22,2369.97,916.12,2500,1250,2500z"/>
<path class="st0" d="M43.25,1250c0-322.33,125.53-625.37,353.45-853.29C624.63,168.77,927.67,43.25,1250,43.25
	s625.37,125.52,853.29,353.45c227.93,227.93,353.45,530.96,353.45,853.29c0,665.41-541.35,1206.75-1206.75,1206.75
	c-322.33,0-625.37-125.53-853.29-353.45C168.78,1875.36,43.25,1572.33,43.25,1250z"/>
<path d="M1250,92.98C611,92.98,92.98,611,92.98,1250S611,2407.02,1250,2407.02S2407.01,1888.99,2407.01,1250
	S1888.99,92.98,1250,92.98L1250,92.98z"/>
<path class="st0" d="M1250,1989.06c-408.17,0-739.06-330.89-739.06-739.06c0-408.17,330.9-739.06,739.06-739.06
	s739.06,330.9,739.06,739.06C1989.06,1658.17,1658.17,1989.06,1250,1989.06z"/>
<path class="st0" d="M706.88,544.85c-24.5-23.81-62.37-30.99-97.92-8.95c6.79-17.6,4.02-35.56,0.41-45.47
	c-15.32-27.93-20.66-31.42-33.28-42.02c-40.86-34.29-83.87-5.02-114.62,31.64l-148.6,177.1l233.6,196.02l156.71-186.76
	C738.98,623.74,744.52,581.44,706.88,544.85L706.88,544.85z M1288.71,460.69l80.23-212.64v212.64h60.97V156.15h-91.61l-83.32,218.05
	h0.86l-83.32-218.05h-91.6v304.54h60.97V248.05l80.23,212.64L1288.71,460.69L1288.71,460.69z M2108.46,587.39l-114.79,162.52
	l177.96-84.49l47.12,58.19L1938.64,859.4l-55.3-68.84l110.17-161.1l-0.65-0.81l-180.49,74.27l-55.84-68.4l191.06-245.76l47.12,58.19
	l-119.64,156.51l182.84-78.5L2108.46,587.39L2108.46,587.39z"/>
<path d="M493.93,523.89c10.34-12.33,33.71-11.82,48.74,0.79c16.52,13.87,16.56,33.53,5.47,46.74l-88.25,105.17l-55.22-46.33
	L493.93,523.89z M650.95,647.96l-93.04,110.88l-58.34-48.96l93.8-111.78c10.59-12.62,34.21-16.3,50.14-2.93
	C661.52,610.29,663.31,633.23,650.95,647.96L650.95,647.96z"/>
</svg>
