<!-- Generator: Adobe Illustrator 23.0.6, SVG Export Plug-In  -->
<svg version="1.1" xmlns="http://www.w3.org/2000/svg" xmlns:xlink="http://www.w3.org/1999/xlink" x="0px" y="0px" width="238px"
	 height="209.98px" viewBox="0 0 238 209.98" style="enable-background:new 0 0 238 209.98;" xml:space="preserve">
<style type="text/css">
	.st0{fill:none;stroke:#F5C87C;stroke-width:3;stroke-miterlimit:10;}
	.st1{fill:#FFFFFF;stroke:#F5C87C;stroke-width:3.0431;stroke-miterlimit:10;}
	.st2{fill:none;stroke:#F5C87C;stroke-width:2.8598;stroke-miterlimit:10;}
</style>
<defs>
</defs>
<polygon class="st0" points="1.5,147.72 17.6,148 28.61,113.54 72.11,114.39 87.93,137.55 123.51,138.12 123.23,115.8 
	137.35,103.66 173.22,104.22 186.21,91.51 229.99,90.67 235.64,94.62 236.49,171.16 231.4,176.53 204.29,176.81 202.31,166.36 
	190.17,154.78 175.2,151.11 163.05,154.78 153.45,165.8 150.35,176.53 81.71,176.53 78.32,166.64 69.29,156.47 62.22,151.11 
	46.41,150.54 38.22,157.04 30.87,164.95 26.64,177.66 1.5,176.81 "/>
<ellipse class="st1" cx="176.61" cy="178.72" rx="28.63" ry="29.73"/>
<ellipse class="st1" cx="54.92" cy="177.51" rx="28.63" ry="29.73"/>
<polygon class="st2" points="28.51,113.15 41.69,89.61 77.25,101.64 82.37,113.41 88,136.95 71.62,113.92 "/>
<polyline class="st2" points="77.26,100.67 96.99,77.99 89.04,72.4 103.91,83.29 "/>
<polygon class="st2" points="144.84,102.14 152.65,71.95 171.35,72.54 168.11,103.76 "/>
<path class="st2" d="M198,90.21l0.74-79.65l-9.13-8.98l-86.43-0.15c0,0-13.69,1.77-22.67,17.67S41.78,89.48,41.78,89.48"/>
</svg>
