<!-- Generator: Adobe Illustrator 23.0.6, SVG Export Plug-In  -->
<svg version="1.1" xmlns="http://www.w3.org/2000/svg" xmlns:xlink="http://www.w3.org/1999/xlink" x="0px" y="0px" width="92.78px"
	 height="43.5px" viewBox="0 0 92.78 43.5" style="enable-background:new 0 0 92.78 43.5;" xml:space="preserve">
<style type="text/css">
	.st0{fill:#A3B6B8;}
</style>
<defs>
</defs>
<g>
	
		<ellipse transform="matrix(0.0768 -0.997 0.997 0.0768 11.644 59.0765)" class="st0" cx="37.72" cy="23.25" rx="10.45" ry="23.31"/>
	
		<ellipse transform="matrix(0.0768 -0.997 0.997 0.0768 35.2404 63.611)" class="st0" cx="51.97" cy="12.78" rx="12.76" ry="14.94"/>
	
		<ellipse transform="matrix(0.0768 -0.997 0.997 0.0768 23.9829 94.5506)" class="st0" cx="63.05" cy="34.32" rx="8.42" ry="18.42"/>
	<ellipse transform="matrix(0.0768 -0.997 0.997 0.0768 36.6304 89.1275)" class="st0" cx="66.45" cy="24.78" rx="5.7" ry="13.26"/>
	<ellipse transform="matrix(0.0768 -0.997 0.997 0.0768 -6.0955 64.9043)" class="st0" cx="32" cy="35.74" rx="7.6" ry="21.08"/>
	
		<ellipse transform="matrix(0.0768 -0.997 0.997 0.0768 -13.4635 42.3756)" class="st0" cx="16.15" cy="28.46" rx="6.52" ry="16.19"/>
	<ellipse transform="matrix(0.0768 -0.997 0.997 0.0768 40.682 109.3895)" class="st0" cx="79.41" cy="32.73" rx="4.21" ry="13.4"/>
</g>
</svg>
