<!-- Generator: Adobe Illustrator 23.0.6, SVG Export Plug-In  -->
<svg version="1.1" xmlns="http://www.w3.org/2000/svg" xmlns:xlink="http://www.w3.org/1999/xlink" x="0px" y="0px" width="29.28px"
	 height="32.46px" viewBox="0 0 29.28 32.46" style="enable-background:new 0 0 29.28 32.46;" xml:space="preserve">
<style type="text/css">
	.st0{fill:#D3CDA3;}
	.st1{fill:#CC343E;}
</style>
<defs>
</defs>
<g>
	<rect x="3.39" y="10.18" class="st0" width="23.55" height="22.28"/>
	<polygon class="st1" points="0,12.3 29.28,12.3 15.49,0 	"/>
	<rect x="11.34" y="25.97" class="st1" width="3.56" height="6.38"/>
	<polygon points="9,20.71 8.68,15.14 9.1,15.23 9.28,17.62 10.52,17.62 10.57,15 11.31,15.14 11.4,20.53 10.75,20.53 10.75,18.31 
		9.46,18.41 9.51,20.62 	"/>
	<path d="M14.23,20.43l-1.65-0.13l-0.44-2.51l0.57-1.71l1.21,0.13l0.48,1.74l0.19,1.65L14.23,20.43z M13.12,17.39l-0.54,0.63
		l0.41,1.11l0.7,0.22l-0.1-1.11L13.12,17.39z"/>
	<polygon points="15.27,20.66 14.95,15.83 15.45,15.87 16.42,17.67 16.93,15.73 18.04,15.83 18.22,21.82 17.62,21.82 17.57,16.93 
		16.88,18.73 16.15,18.68 15.55,17.07 16.01,21.36 	"/>
	<polygon points="18.77,16.33 18.86,20.76 21.12,20.9 21.17,20.16 19.46,20.2 19.28,18.73 21.35,18.87 21.08,18.22 19.23,18.22 
		19.1,16.84 20.89,17.02 20.71,16.24 	"/>
</g>
</svg>
