<!-- Generator: Adobe Illustrator 23.0.6, SVG Export Plug-In  -->
<svg version="1.1" xmlns="http://www.w3.org/2000/svg" xmlns:xlink="http://www.w3.org/1999/xlink" x="0px" y="0px" width="25.24px"
	 height="48.51px" viewBox="0 0 25.24 48.51" style="enable-background:new 0 0 25.24 48.51;" xml:space="preserve">
<style type="text/css">
	.st0{fill:#CEBB45;stroke:#000000;stroke-width:0.092;stroke-miterlimit:10;}
	.st1{fill:#EEE940;stroke:#000000;stroke-width:0.092;stroke-miterlimit:10;}
	.st2{fill:#608D3D;stroke:#000000;stroke-width:0.092;stroke-miterlimit:10;}
</style>
<defs>
</defs>
<g>
	<polygon class="st0" points="24.54,44.37 0.08,42.14 1.71,45.65 17.17,48.46 	"/>
	<polygon class="st1" points="17.31,2.39 20.2,4.42 21.76,10.58 20.98,15.81 19.97,17.83 22.62,16.66 25.19,12.84 24.8,6.99 
		23.01,2.15 18.17,0.05 13.33,1.22 	"/>
	<polygon class="st2" points="8.62,44.8 8.53,32.05 3.23,31.49 1.83,21.62 2.67,20.41 5.09,20.23 6.76,21.81 6.58,28.7 8.9,29.25 
		8.72,11.02 9.65,9.53 16.07,9.34 17.56,11.39 15.7,29.35 18.02,28.79 18.21,21.72 19.33,19.86 22.49,19.58 24.07,21.35 
		23.14,29.53 19.51,32.23 15.79,32.51 15.98,44.98 13.93,46.01 10.39,45.91 	"/>
</g>
</svg>
