<!-- Generator: Adobe Illustrator 23.0.6, SVG Export Plug-In  -->
<svg version="1.1" xmlns="http://www.w3.org/2000/svg" xmlns:xlink="http://www.w3.org/1999/xlink" x="0px" y="0px" width="57.82px"
	 height="22.21px" viewBox="0 0 57.82 22.21" style="enable-background:new 0 0 57.82 22.21;" xml:space="preserve">
<style type="text/css">
	.st0{fill:#A08445;stroke:#000000;stroke-width:0.0336;stroke-miterlimit:10;}
	.st1{fill:#ABABAA;stroke:#000000;stroke-width:0.0345;stroke-miterlimit:10;}
	.st2{fill:#B22024;stroke:#000000;stroke-width:0.0345;stroke-miterlimit:10;}
	.st3{fill:#FCFAFC;}
</style>
<defs>
</defs>
<g>
	<path class="st0" d="M0.04,19.8c0,0,43.97-7.2,57.72-0.33C57.76,19.47,7.4,25.37,0.04,19.8z"/>
	<path class="st1" d="M12.23,20.3L12.05,1.73c0,0,2.7-3.05,5.06,0l-0.09,18.74C17.02,20.47,14.23,22.39,12.23,20.3z"/>
	<path class="st1" d="M18.97,19.94L18.79,1.37c0,0,2.7-3.05,5.06,0l-0.09,18.74C23.76,20.11,20.97,22.03,18.97,19.94z"/>
	<polygon class="st2" points="29.5,19.57 29.5,8.37 38.65,0.79 49.24,8.01 49.24,19.2 	"/>
	<rect x="30.05" y="9.31" class="st3" width="18.63" height="0.75"/>
	<path class="st3" d="M36.92,19.37c0,0-0.16-2.47,1.43-2.55c1.59-0.08,1.35,2.52,1.35,2.52h0.36c0,0-0.1-2.94-1.12-2.86
		c-1.02,0.08-2.08-0.29-2.11,1.67l-0.18,1.3L36.92,19.37z"/>
	<polygon class="st3" points="38.18,19.39 38.16,16.72 38.39,16.72 38.35,19.37 	"/>
</g>
</svg>
