<!-- Generator: Adobe Illustrator 23.0.6, SVG Export Plug-In  -->
<svg version="1.1" xmlns="http://www.w3.org/2000/svg" xmlns:xlink="http://www.w3.org/1999/xlink" x="0px" y="0px" width="243px"
	 height="363.71px" viewBox="0 0 243 363.71" style="enable-background:new 0 0 243 363.71;" xml:space="preserve">
<style type="text/css">
	.st0{fill:none;stroke:#DDD8A9;stroke-miterlimit:10;}
</style>
<defs>
</defs>
<g>
	<path class="st0" d="M157.14,363.21H85.69c-47.03,0-85.15-38.12-85.15-85.15V85.99c0-47.03,38.12-85.15,85.15-85.15h71.45
		c47.03,0,85.15,38.12,85.15,85.15v192.07C242.3,325.09,204.17,363.21,157.14,363.21z"/>
	<path class="st0" d="M157.34,310.06H85.65c-47.03,0-85.15-38.12-85.15-85.15V85.65C0.5,38.62,38.62,0.5,85.65,0.5h71.69
		c47.03,0,85.15,38.12,85.15,85.15V224.9C242.5,271.93,204.37,310.06,157.34,310.06z"/>
</g>
</svg>
