<!-- Generator: Adobe Illustrator 23.0.6, SVG Export Plug-In  -->
<svg version="1.1" xmlns="http://www.w3.org/2000/svg" xmlns:xlink="http://www.w3.org/1999/xlink" x="0px" y="0px"
	 width="243.09px" height="363.85px" viewBox="0 0 243.09 363.85" style="enable-background:new 0 0 243.09 363.85;"
	 xml:space="preserve">
<style type="text/css">
	.st0{fill:none;stroke:#000000;stroke-width:1.18;stroke-miterlimit:10;}
	.st1{fill:none;stroke:#000000;stroke-width:1.0912;stroke-miterlimit:10;}
	.st2{fill:none;stroke:#000000;stroke-width:0.0521;stroke-miterlimit:10;}
</style>
<defs>
</defs>
<path class="st0" d="M157.2,363.26H85.74c-47.03,0-85.15-38.12-85.15-85.15V86.04c0-47.03,38.12-85.15,85.15-85.15h71.45
	c47.03,0,85.15,38.12,85.15,85.15V278.1C242.35,325.13,204.22,363.26,157.2,363.26z"/>
<path class="st1" d="M157.39,310.1H85.71c-47.03,0-85.15-38.12-85.15-85.15V85.7c0-47.03,38.12-85.15,85.15-85.15h71.69
	c47.03,0,85.15,38.12,85.15,85.15v139.25C242.55,271.98,204.42,310.1,157.39,310.1z"/>
<path class="st2" d="M102.49,208.87"/>
</svg>
