<!-- Generator: Adobe Illustrator 23.0.6, SVG Export Plug-In  -->
<svg version="1.1" xmlns="http://www.w3.org/2000/svg" xmlns:xlink="http://www.w3.org/1999/xlink" x="0px" y="0px" width="34.66px"
	 height="50.36px" viewBox="0 0 34.66 50.36" style="enable-background:new 0 0 34.66 50.36;" xml:space="preserve">
<style type="text/css">
	.st0{fill:#ABABAA;stroke:#000000;stroke-width:0.0727;stroke-miterlimit:10;}
	.st1{fill:#F9F9F4;stroke:#000000;stroke-width:0.0727;stroke-miterlimit:10;}
	.st2{fill:#ABABAA;stroke:#000000;stroke-width:0.0485;stroke-miterlimit:10;}
	.st3{fill:#F9F9F4;stroke:#000000;stroke-width:0.0485;stroke-miterlimit:10;}
</style>
<defs>
</defs>
<g>
	<g>
		<path class="st0" d="M0.05,50.19c0,0,11.83-49.64,14.75-49.64s11.83,49.33,11.83,49.33L0.05,50.19z"/>
		<path class="st1" d="M9.1,15.15c0,0,1.48,2.19,3.06-0.38s2.4,3.01,3.77,2.73c1.37-0.27,2.24,0.33,2.4-1.91s0.82-2.19,0.82-2.19
			S15.76-17.8,9.1,15.15z"/>
	</g>
	<g>
		<path class="st2" d="M16.9,50.33c0,0,7.89-33.1,9.84-33.1s7.89,32.9,7.89,32.9L16.9,50.33z"/>
		<path class="st3" d="M22.94,26.96c0,0,0.98,1.46,2.04-0.26c1.06-1.71,1.6,2,2.51,1.82c0.91-0.18,1.49,0.22,1.6-1.28
			s0.55-1.46,0.55-1.46S27.38,4.99,22.94,26.96z"/>
	</g>
</g>
</svg>
