<!-- Generator: Adobe Illustrator 23.0.6, SVG Export Plug-In  -->
<svg version="1.1" xmlns="http://www.w3.org/2000/svg" xmlns:xlink="http://www.w3.org/1999/xlink" x="0px" y="0px" width="49.55px"
	 height="54.94px" viewBox="0 0 49.55 54.94" style="enable-background:new 0 0 49.55 54.94;" xml:space="preserve">
<style type="text/css">
	.st0{fill:#F2BB52;}
</style>
<defs>
</defs>
<polygon class="st0" points="24.2,54.85 24.34,44.02 17.67,50.33 16.39,49.37 24.39,41.92 24.48,28.68 12.47,35.35 9.32,45.62 
	8.27,44.89 10.91,36.22 0.64,42.11 0,40.6 9.77,35.53 0.64,32.93 1.23,31.28 11.33,34.48 23.66,27.58 11.69,20.92 1.23,23.75 
	0.82,22.29 9.64,20.09 0.23,14.43 1,13.2 10.96,18.86 8.13,9.73 9.27,9.45 12.56,19.82 24.3,26.49 24.25,13.2 16.44,5.71 17.9,4.98 
	24.2,11.42 24.02,0 25.76,0.05 25.48,11.14 31.69,5.02 33.02,5.75 25.25,13.11 25.53,26.12 37.72,19.64 40.19,9.59 41.51,9.91 
	39.46,18.4 48.55,13.11 49.55,14.66 40.33,20.09 48.32,22.33 47.72,24.11 38.45,21.1 25.94,28.13 37.9,34.34 48.27,31.47 
	48.41,33.06 38.96,35.44 49.23,40.46 48.04,41.65 38.5,36.53 41.19,44.53 39.55,44.89 37.49,35.76 25.67,29.09 25.71,42.24 
	33.06,49.37 32.01,50.05 25.57,43.57 25.53,54.94 "/>
</svg>
