<!-- Generator: Adobe Illustrator 23.0.6, SVG Export Plug-In  -->
<svg version="1.1" xmlns="http://www.w3.org/2000/svg" xmlns:xlink="http://www.w3.org/1999/xlink" x="0px" y="0px" width="22.98px"
	 height="65.75px" viewBox="0 0 22.98 65.75" style="enable-background:new 0 0 22.98 65.75;" xml:space="preserve">
<style type="text/css">
	.st0{fill:#F2BB52;}
</style>
<defs>
</defs>
<path class="st0" d="M5.15,46.8L5.32,5.36c0,0,5.18-8.72,11.05-0.09l0.78,41.61c0,0,8.46,6.56,0.43,14.93S2.04,59.57,1.95,58.11
	C1.87,56.64-0.47,53.01,5.15,46.8z M0.14,56.29c1.04,7.6,6.73,8.8,11.48,9.41c4.75,0.6,8.98-4.23,10.96-8.89s-4.14-10.79-4.14-10.79
	S18.01,6.48,18.01,5.71s-2.93-5.96-6.91-5.7S4.46,4.84,4.46,4.84L4.2,45.67C4.2,45.67-0.9,48.7,0.14,56.29z"/>
</svg>
